<?xml version="1.0" encoding="UTF-8" standalone="no"?>
<!DOCTYPE svg PUBLIC "-//W3C//DTD SVG 1.1//EN"
"http://www.w3.org/Graphics/SVG/1.1/DTD/svg11.dtd">
<svg viewBox="0 0 935 1210" version="1.1" xmlns="http://www.w3.org/2000/svg" xmlns:xlink="http://www.w3.org/1999/xlink">
<defs>
<style type="text/css"><![CDATA[
.g0_16{
fill: none;
stroke: #000000;
stroke-width: 1.099;
stroke-linecap: square;
stroke-linejoin: miter;
}
.g1_16{
fill: none;
stroke: #000000;
stroke-width: 9.13;
stroke-linecap: square;
stroke-linejoin: miter;
}
.g2_16{
fill: none;
stroke: #000000;
stroke-width: 1.099;
stroke-linecap: butt;
stroke-linejoin: miter;
}
.g3_16{
fill: #E2E2E2;
}
.g4_16{
fill: none;
stroke: #000000;
stroke-width: 0.763;
stroke-linecap: butt;
stroke-linejoin: miter;
}
.g5_16{
fill: #FFFFFF;
}
.g6_16{
fill: none;
stroke: #C0C0C0;
stroke-width: 0.763;
stroke-linecap: square;
stroke-linejoin: miter;
}
.g7_16{
fill: none;
stroke: #000000;
stroke-width: 0.763;
stroke-linecap: square;
stroke-linejoin: miter;
}
]]></style>
</defs>
<path d="M55,1155H880" class="g0_16"/>
<path d="M876.1,55H59.9" class="g1_16"/>
<path d="M880,64.2H55" class="g2_16"/>
<path d="M55,110H880V82.5H55V110Z" class="g3_16"/>
<path d="M55,110H880V82.5H55V110Z" class="g2_16"/>
<path d="M91.7,286.7H880V259.2H91.7v27.5Z" class="g4_16"/>
<path d="M95,180.6h15.2V165.3H95v15.3Z" class="g5_16"/>
<path d="M95,180.6h15.2V165.3H95v15.3Z" class="g4_16"/>
<path d="M186.6,180.6h15.3V165.3H186.6v15.3Z" class="g5_16"/>
<path d="M186.6,180.6h15.3V165.3H186.6v15.3Z" class="g4_16"/>
<path d="M773.3,729.4h15.3V714.1H773.3v15.3Z" class="g5_16"/>
<path d="M773.3,729.4h15.3V714.1H773.3v15.3Z" class="g4_16"/>
<path d="M839,774.1h15.3V758.9H839v15.2Z" class="g5_16"/>
<path d="M839,774.1h15.3V758.9H839v15.2Z" class="g4_16"/>
<path d="M773.3,1040h15.3v-15.3H773.3V1040Z" class="g5_16"/>
<path d="M773.3,1040h15.3v-15.3H773.3V1040Z" class="g4_16"/>
<path d="M837.5,1040h15.2v-15.3H837.5V1040Z" class="g5_16"/>
<path d="M837.5,1040h15.2v-15.3H837.5V1040Z" class="g4_16"/>
<path d="M773.3,920.8h15.3V905.5H773.3v15.3Z" class="g5_16"/>
<path d="M773.3,920.8h15.3V905.5H773.3v15.3Z" class="g4_16"/>
<path d="M837.5,920.8h15.2V905.5H837.5v15.3Z" class="g5_16"/>
<path d="M837.5,920.8h15.2V905.5H837.5v15.3Z" class="g4_16"/>
<path d="M773.3,774.1h15.3V758.9H773.3v15.2Z" class="g5_16"/>
<path d="M773.3,774.1h15.3V758.9H773.3v15.2Z" class="g4_16"/>
<path d="M839,729.4h15.3V714.1H839v15.3Z" class="g5_16"/>
<path d="M839,729.4h15.3V714.1H839v15.3Z" class="g4_16"/>
<path d="M839,691.6h15.3V676.3H839v15.3Z" class="g5_16"/>
<path d="M839,691.6h15.3V676.3H839v15.3Z" class="g4_16"/>
<path d="M773.3,691.6h15.3V676.3H773.3v15.3Z" class="g5_16"/>
<path d="M773.3,691.6h15.3V676.3H773.3v15.3Z" class="g4_16"/>
<path d="M398.8,980.8v27.5m-22,-27.5v27.5M354.7,980.8v27.5m-22,-27.5v27.5M310.6,980.8v27.5m-22,-27.5v27.5M509,980.8v27.5m22.1,-27.5v27.5M487,980.8v27.5M464.9,980.8v27.5m-22,-27.5v27.5M420.8,980.8v27.5" class="g6_16"/>
<path d="M265.8,1008.3H553.7V980.8H265.8v27.5ZM247.5,971.7H880V944.2H247.5v27.5Z" class="g4_16"/>
<path d="M880,632.5H91.7m0,29.3H880" class="g7_16"/>
<path d="M91.7,421.7h523V394.2H91.7v27.5Zm623.7,0H880V394.2H715.4v27.5Zm-91.5,0h82.3V394.2H623.9v27.5ZM91.7,366.7h523V339.2H91.7v27.5Z" class="g4_16"/>
<path d="M656.9,360.6h15.3V345.3H656.9v15.3Z" class="g5_16"/>
<path d="M656.9,360.6h15.3V345.3H656.9v15.3Z" class="g4_16"/>
<path d="M629.4,360.6h15.3V345.3H629.4v15.3Z" class="g5_16"/>
<path d="M629.4,360.6h15.3V345.3H629.4v15.3Z" class="g4_16"/>
<path d="M684.4,360.6h15.3V345.3H684.4v15.3Z" class="g5_16"/>
<path d="M684.4,360.6h15.3V345.3H684.4v15.3Zm30.6,6.1H880V339.2H715v27.5Z" class="g4_16"/>
<path d="M773.3,452.2h15.3V436.9H773.3v15.3Z" class="g5_16"/>
<path d="M773.3,452.2h15.3V436.9H773.3v15.3Z" class="g4_16"/>
<path d="M837.5,452.2h15.2V436.9H837.5v15.3Z" class="g5_16"/>
<path d="M837.5,452.2h15.2V436.9H837.5v15.3Z" class="g4_16"/>
</svg>