<?xml version="1.0" encoding="UTF-8" standalone="no"?>
<!DOCTYPE svg PUBLIC "-//W3C//DTD SVG 1.1//EN"
"http://www.w3.org/Graphics/SVG/1.1/DTD/svg11.dtd">
<svg viewBox="0 0 935 1210" version="1.1" xmlns="http://www.w3.org/2000/svg" xmlns:xlink="http://www.w3.org/1999/xlink">
<defs>
<style type="text/css"><![CDATA[
.g0_19{
fill: none;
stroke: #000000;
stroke-width: 1.099;
stroke-linecap: square;
stroke-linejoin: miter;
}
.g1_19{
fill: none;
stroke: #000000;
stroke-width: 9.13;
stroke-linecap: square;
stroke-linejoin: miter;
}
.g2_19{
fill: none;
stroke: #000000;
stroke-width: 1.099;
stroke-linecap: butt;
stroke-linejoin: miter;
}
.g3_19{
fill: none;
stroke: #000000;
stroke-width: 0.763;
stroke-linecap: butt;
stroke-linejoin: miter;
}
.g4_19{
fill: #E2E2E2;
}
.g5_19{
fill: #FFFFFF;
}
.g6_19{
fill: none;
stroke: #C0C0C0;
stroke-width: 0.763;
stroke-linecap: square;
stroke-linejoin: miter;
}
]]></style>
</defs>
<path d="M55,1155H880" class="g0_19"/>
<path d="M876.2,137.5H60" class="g1_19"/>
<path d="M880,146.7H55" class="g2_19"/>
<image preserveAspectRatio="none" x="55" y="55" width="73" height="73" xlink:href="img/1.jpg"/>
<path d="M82.1,259.4H880V231.9H82.1v27.5Zm0,-57.7H880V174.2H82.1v27.5Z" class="g3_19"/>
<path d="M55,312.1H880V284.6H55v27.5Z" class="g4_19"/>
<path d="M55,312.1H880V284.6H55v27.5Z" class="g2_19"/>
<path d="M86.4,663.1h15.2V647.8H86.4v15.3Z" class="g5_19"/>
<path d="M86.4,663.1h15.2V647.8H86.4v15.3Z" class="g3_19"/>
<path d="M86.4,699.7h15.2V684.4H86.4v15.3Z" class="g5_19"/>
<path d="M86.4,699.7h15.2V684.4H86.4v15.3Z" class="g3_19"/>
<path d="M86.4,745.6h15.2V730.3H86.4v15.3Z" class="g5_19"/>
<path d="M86.4,745.6h15.2V730.3H86.4v15.3Z" class="g3_19"/>
<path d="M86.4,782.2h15.2V766.9H86.4v15.3Z" class="g5_19"/>
<path d="M86.4,782.2h15.2V766.9H86.4v15.3Z" class="g3_19"/>
<path d="M86.4,818.9h15.2V803.6H86.4v15.3Z" class="g5_19"/>
<path d="M86.4,818.9h15.2V803.6H86.4v15.3Z" class="g3_19"/>
<path d="M471.4,699.7h15.2V684.4H471.4v15.3Z" class="g5_19"/>
<path d="M471.4,699.7h15.2V684.4H471.4v15.3Z" class="g3_19"/>
<path d="M471.4,745.6h15.2V730.3H471.4v15.3Z" class="g5_19"/>
<path d="M471.4,745.6h15.2V730.3H471.4v15.3Z" class="g3_19"/>
<path d="M471.4,663.1h15.2V647.8H471.4v15.3Z" class="g5_19"/>
<path d="M471.4,663.1h15.2V647.8H471.4v15.3Z" class="g3_19"/>
<path d="M471.4,782.2h15.2V766.9H471.4v15.3Z" class="g5_19"/>
<path d="M471.4,782.2h15.2V766.9H471.4v15.3Z" class="g3_19"/>
<path d="M837.5,364.4h15.2V349.1H837.5v15.3Z" class="g5_19"/>
<path d="M837.5,364.4h15.2V349.1H837.5v15.3Z" class="g3_19"/>
<path d="M773.3,397.2h15.3V381.9H773.3v15.3Z" class="g5_19"/>
<path d="M773.3,397.2h15.3V381.9H773.3v15.3Z" class="g3_19"/>
<path d="M837.5,433.9h15.2V418.6H837.5v15.3Z" class="g5_19"/>
<path d="M837.5,433.9h15.2V418.6H837.5v15.3Z" class="g3_19"/>
<path d="M773.3,479.7h15.3V464.4H773.3v15.3Z" class="g5_19"/>
<path d="M773.3,479.7h15.3V464.4H773.3v15.3Z" class="g3_19"/>
<path d="M837.5,516.4h15.2V501.1H837.5v15.3Z" class="g5_19"/>
<path d="M837.5,516.4h15.2V501.1H837.5v15.3Z" class="g3_19"/>
<path d="M837.5,553.1h15.2V537.8H837.5v15.3Z" class="g5_19"/>
<path d="M837.5,553.1h15.2V537.8H837.5v15.3Z" class="g3_19"/>
<path d="M773.3,589.7h15.3V574.4H773.3v15.3Z" class="g5_19"/>
<path d="M773.3,589.7h15.3V574.4H773.3v15.3Z" class="g3_19"/>
<path d="M837.5,589.7h15.2V574.4H837.5v15.3Z" class="g5_19"/>
<path d="M837.5,589.7h15.2V574.4H837.5v15.3Z" class="g3_19"/>
<path d="M773.3,553.1h15.3V537.8H773.3v15.3Z" class="g5_19"/>
<path d="M773.3,553.1h15.3V537.8H773.3v15.3Z" class="g3_19"/>
<path d="M773.3,516.4h15.3V501.1H773.3v15.3Z" class="g5_19"/>
<path d="M773.3,516.4h15.3V501.1H773.3v15.3Z" class="g3_19"/>
<path d="M837.5,479.7h15.2V464.4H837.5v15.3Z" class="g5_19"/>
<path d="M837.5,479.7h15.2V464.4H837.5v15.3Z" class="g3_19"/>
<path d="M773.3,433.9h15.3V418.6H773.3v15.3Z" class="g5_19"/>
<path d="M773.3,433.9h15.3V418.6H773.3v15.3Z" class="g3_19"/>
<path d="M837.5,397.2h15.2V381.9H837.5v15.3Z" class="g5_19"/>
<path d="M837.5,397.2h15.2V381.9H837.5v15.3Z" class="g3_19"/>
<path d="M773.3,364.4h15.3V349.1H773.3v15.3Z" class="g5_19"/>
<path d="M773.3,364.4h15.3V349.1H773.3v15.3ZM82.5,880H879.7V852.5H82.5V880Zm2.9,0H876.8M670.3,936.9H804.4V907.5H670.3v29.4Z" class="g3_19"/>
<path d="M781.5,908.1v28.1m-22,-28.1v28.1M737.4,908.1v28.1m-22,-28.1v28.1M693.3,908.1v28.1M803.6,908.1v28.1" class="g6_19"/>
<path d="M441.2,936.9h72.1V907.5H441.2v29.4Z" class="g3_19"/>
<path d="M486.2,908.1v28.1m-22,-28.1v28.1" class="g6_19"/>
<path d="M82.5,935H293.3V907.5H82.5V935Z" class="g3_19"/>
<path d="M770,1066.4h15.3v-15.3H770v15.3Z" class="g5_19"/>
<path d="M770,1066.4h15.3v-15.3H770v15.3Z" class="g3_19"/>
<path d="M837.5,1066.4h15.2v-15.3H837.5v15.3Z" class="g5_19"/>
<path d="M837.5,1066.4h15.2v-15.3H837.5v15.3Z" class="g3_19"/>
<path d="M55.1,990h825V962.5H55.1V990Z" class="g4_19"/>
<path d="M55.1,990h825V962.5H55.1V990Z" class="g2_19"/>
<path d="M837.5,1112.2h15.2v-15.3H837.5v15.3Z" class="g5_19"/>
<path d="M837.5,1112.2h15.2v-15.3H837.5v15.3Z" class="g3_19"/>
<path d="M770,1112.2h15.3v-15.3H770v15.3Z" class="g5_19"/>
<path d="M770,1112.2h15.3v-15.3H770v15.3Z" class="g3_19"/>
</svg>