<?xml version="1.0" encoding="UTF-8" standalone="no"?>
<!DOCTYPE svg PUBLIC "-//W3C//DTD SVG 1.1//EN"
"http://www.w3.org/Graphics/SVG/1.1/DTD/svg11.dtd">
<svg viewBox="0 0 935 1210" version="1.1" xmlns="http://www.w3.org/2000/svg" xmlns:xlink="http://www.w3.org/1999/xlink">
<defs>
<style type="text/css"><![CDATA[
.g0_23{
fill: none;
stroke: #000000;
stroke-width: 1.099;
stroke-linecap: square;
stroke-linejoin: miter;
}
.g1_23{
fill: none;
stroke: #000000;
stroke-width: 9.13;
stroke-linecap: square;
stroke-linejoin: miter;
}
.g2_23{
fill: none;
stroke: #000000;
stroke-width: 1.099;
stroke-linecap: butt;
stroke-linejoin: miter;
}
.g3_23{
fill: #E2E2E2;
}
.g4_23{
fill: none;
stroke: #000000;
stroke-width: 0.763;
stroke-linecap: butt;
stroke-linejoin: miter;
}
.g5_23{
fill: none;
stroke: #000000;
stroke-width: 0.763;
stroke-linecap: square;
stroke-linejoin: miter;
}
.g6_23{
fill: #FFFFFF;
}
]]></style>
</defs>
<path d="M55,1155H880" class="g0_23"/>
<path d="M876.2,55H60" class="g1_23"/>
<path d="M880,64.2H55" class="g2_23"/>
<path d="M55,110H880V82.5H55V110Z" class="g3_23"/>
<path d="M55,110H880V82.5H55V110Z" class="g2_23"/>
<path d="M91.7,334.6H880V137.5H91.7V334.6Zm0,-151.8H335.4V137.5H91.7v45.3Zm243.7,0H880V137.5H335.4v45.3ZM91.7,208.1h112V182.8H91.7v25.3Zm112,0H335.4V182.8H203.7v25.3Zm131.7,0H880V182.8H335.4v25.3ZM91.7,233.4h112V208.1H91.7v25.3Zm112,0H335.4V208.1H203.7v25.3Zm131.7,0H880V208.1H335.4v25.3ZM91.7,258.7h112V233.4H91.7v25.3Zm112,0H335.4V233.4H203.7v25.3Zm131.7,0H880V233.4H335.4v25.3ZM91.7,284h112V258.7H91.7V284Zm112,0H335.4V258.7H203.7V284Zm131.7,0H880V258.7H335.4V284ZM91.7,309.3h112V284H91.7v25.3Zm112,0H335.4V284H203.7v25.3Zm131.7,0H880V284H335.4v25.3ZM91.7,334.6h112V309.3H91.7v25.3Zm112,0H335.4V309.3H203.7v25.3Zm131.7,0H880V309.3H335.4v25.3Z" class="g4_23"/>
<path d="M880,982H91.7M880,1037H91.7M880,1009.5H91.7M880,954.5H91.7M880,927H91.7M880,899.5H91.7M880,872H91.7M880,752.9H91.7M880,725.4H91.7m788.3,55H91.7M880,807.9H91.7M880,697.9H91.7M880,670.4H91.7M880,642.9H91.7M880,412.5H91.7M880,440H91.7M880,467.5H91.7M880,495H91.7M880,522.5H91.7M880,550H91.7M880,577.5H91.7" class="g5_23"/>
<path d="M95,1098h15.2v-15.3H95V1098Z" class="g6_23"/>
<path d="M95,1098h15.2v-15.3H95V1098Z" class="g4_23"/>
<path d="M209.3,1098h15.3v-15.3H209.3V1098Z" class="g6_23"/>
<path d="M209.3,1098h15.3v-15.3H209.3V1098Z" class="g4_23"/>
<path d="M332.1,1098h15.3v-15.3H332.1V1098Z" class="g6_23"/>
<path d="M332.1,1098h15.3v-15.3H332.1V1098Z" class="g4_23"/>
<path d="M470,1098h15.3v-15.3H470V1098Z" class="g6_23"/>
<path d="M470,1098h15.3v-15.3H470V1098Z" class="g4_23"/>
<path d="M601.2,1098h15.3v-15.3H601.2V1098Z" class="g6_23"/>
<path d="M601.2,1098h15.3v-15.3H601.2V1098Z" class="g4_23"/>
</svg>