<?xml version="1.0" encoding="UTF-8" standalone="no"?>
<!DOCTYPE svg PUBLIC "-//W3C//DTD SVG 1.1//EN"
"http://www.w3.org/Graphics/SVG/1.1/DTD/svg11.dtd">
<svg viewBox="0 0 935 1210" version="1.1" xmlns="http://www.w3.org/2000/svg" xmlns:xlink="http://www.w3.org/1999/xlink">
<defs>
<style type="text/css"><![CDATA[
.g0_32{
fill: none;
stroke: #000000;
stroke-width: 1.099;
stroke-linecap: square;
stroke-linejoin: miter;
}
.g1_32{
fill: none;
stroke: #000000;
stroke-width: 9.13;
stroke-linecap: square;
stroke-linejoin: miter;
}
.g2_32{
fill: none;
stroke: #000000;
stroke-width: 1.099;
stroke-linecap: butt;
stroke-linejoin: miter;
}
.g3_32{
fill: #E2E2E2;
}
.g4_32{
fill: #FFFFFF;
}
.g5_32{
fill: none;
stroke: #000000;
stroke-width: 0.763;
stroke-linecap: butt;
stroke-linejoin: miter;
}
.g6_32{
fill: none;
stroke: #000000;
stroke-width: 0.763;
stroke-linecap: square;
stroke-linejoin: miter;
}
]]></style>
</defs>
<path d="M55,1155H880" class="g0_32"/>
<path d="M876.2,55H60" class="g1_32"/>
<path d="M880,64.2H55" class="g2_32"/>
<path d="M55,110H880V82.5H55V110Z" class="g3_32"/>
<path d="M55,110H880V82.5H55V110Z" class="g2_32"/>
<path d="M95,589.7h15.2V574.4H95v15.3Z" class="g4_32"/>
<path d="M95,589.7h15.2V574.4H95v15.3Z" class="g5_32"/>
<path d="M177.5,589.7h15.2V574.4H177.5v15.3Z" class="g4_32"/>
<path d="M177.5,589.7h15.2V574.4H177.5v15.3Z" class="g5_32"/>
<path d="M881.4,687.5H91.3M881.4,660H91.3M881.4,632.5H91.3M879.5,430.8H91.4m788.1,27.5H91.4m788.1,27.5H91.4M880,220H91.7M880,192.5H91.7M880,165H91.7" class="g6_32"/>
<path d="M177.5,388.1h15.2V372.8H177.5v15.3Z" class="g4_32"/>
<path d="M177.5,388.1h15.2V372.8H177.5v15.3Z" class="g5_32"/>
<path d="M95,388.1h15.2V372.8H95v15.3Z" class="g4_32"/>
<path d="M95,388.1h15.2V372.8H95v15.3Z" class="g5_32"/>
<path d="M95,754.7h15.2V739.4H95v15.3Z" class="g4_32"/>
<path d="M95,754.7h15.2V739.4H95v15.3Z" class="g5_32"/>
<path d="M177.5,754.7h15.2V739.4H177.5v15.3Z" class="g4_32"/>
<path d="M177.5,754.7h15.2V739.4H177.5v15.3Z" class="g5_32"/>
<path d="M880.3,852.5H91.7M880.3,825H91.7M880.3,797.5H91.7" class="g6_32"/>
<path d="M95,938.1h15.2V922.8H95v15.3Z" class="g4_32"/>
<path d="M95,938.1h15.2V922.8H95v15.3Z" class="g5_32"/>
<path d="M177.5,938.1h15.2V922.8H177.5v15.3Z" class="g4_32"/>
<path d="M177.5,938.1h15.2V922.8H177.5v15.3Z" class="g5_32"/>
<path d="M879.7,1036.7H91.3m788.4,-28.4H91.3M879.7,980.8H91.3" class="g6_32"/>
</svg>