<?xml version="1.0" encoding="UTF-8" standalone="no"?>
<!DOCTYPE svg PUBLIC "-//W3C//DTD SVG 1.1//EN"
"http://www.w3.org/Graphics/SVG/1.1/DTD/svg11.dtd">
<svg viewBox="0 0 935 1210" version="1.1" xmlns="http://www.w3.org/2000/svg" xmlns:xlink="http://www.w3.org/1999/xlink">
<defs>
<style type="text/css"><![CDATA[
.g0_34{
fill: none;
stroke: #000000;
stroke-width: 1.099;
stroke-linecap: square;
stroke-linejoin: miter;
}
.g1_34{
fill: none;
stroke: #000000;
stroke-width: 0.763;
stroke-linecap: butt;
stroke-linejoin: miter;
}
.g2_34{
fill: #E2E2E2;
}
.g3_34{
fill: none;
stroke: #000000;
stroke-width: 1.099;
stroke-linecap: butt;
stroke-linejoin: miter;
}
.g4_34{
fill: none;
stroke: #000000;
stroke-width: 9.13;
stroke-linecap: square;
stroke-linejoin: miter;
}
.g5_34{
fill: #E0E0E0;
}
.g6_34{
fill: #FFFFFF;
}
.g7_34{
fill: #F7F7F7;
}
]]></style>
</defs>
<path d="M55,1155H880" class="g0_34"/>
<path d="M55,646.6H880V422.5H55V646.6Z" class="g1_34"/>
<path d="M55,110H880V82.5H55V110Z" class="g2_34"/>
<path d="M55,110H880V82.5H55V110Z" class="g3_34"/>
<path d="M876.2,54.7H60" class="g4_34"/>
<path d="M880,63.9H55" class="g3_34"/>
<path d="M55.1,256.7H614.2V229.2H55.1v27.5Zm568.2,0h82.3V229.2H623.3v27.5Zm91.7,0H880V229.2H715v27.5ZM55,201.7H614.2V174.2H55v27.5Z" class="g1_34"/>
<path d="M55,146.7H880V119.2H55v27.5Z" class="g5_34"/>
<path d="M55,302.5H880V275H55v27.5Z" class="g5_34"/>
<path d="M715,201.7H880V174.2H715v27.5Z" class="g1_34"/>
<path d="M684.4,195.6h15.3V180.3H684.4v15.3Z" class="g6_34"/>
<path d="M684.4,195.6h15.3V180.3H684.4v15.3Z" class="g1_34"/>
<path d="M656.9,195.6h15.3V180.3H656.9v15.3Z" class="g6_34"/>
<path d="M656.9,195.6h15.3V180.3H656.9v15.3Z" class="g1_34"/>
<path d="M629.4,195.6h15.3V180.3H629.4v15.3Z" class="g6_34"/>
<path d="M629.4,195.6h15.3V180.3H629.4v15.3ZM531.7,358.3H880V330.8H531.7v27.5Z" class="g1_34"/>
<path d="M55,412.5H880V385H55v27.5Z" class="g2_34"/>
<path d="M55,412.5H880V385H55v27.5Z" class="g3_34"/>
<path d="M311.7,505H870.8V477.5H311.7V505Z" class="g7_34"/>
<path d="M311.7,505H870.8V477.5H311.7V505Z" class="g1_34"/>
<path d="M311.7,560H870.8V532.5H311.7V560Z" class="g7_34"/>
<path d="M311.7,560H870.8V532.5H311.7V560ZM678.3,761.6H880V734.1H678.3v27.5ZM55,761.6H660V734.1H55v27.5Zm0,210.9H614.2V945H55v27.5Zm568.3,0h82.4V945H623.3v27.5Zm91.7,0H880.1V945H715v27.5ZM55,917.5H614.2V890H55v27.5Z" class="g1_34"/>
<path d="M55,806.7H880V779.2H55v27.5Z" class="g5_34"/>
<path d="M715,917.5H880.1V890H715v27.5Z" class="g1_34"/>
<path d="M684.4,911.4h15.3V896.1H684.4v15.3Z" class="g6_34"/>
<path d="M684.4,911.4h15.3V896.1H684.4v15.3Z" class="g1_34"/>
<path d="M656.9,911.3h15.3V896.1H656.9v15.2Z" class="g6_34"/>
<path d="M656.9,911.3h15.3V896.1H656.9v15.2Z" class="g1_34"/>
<path d="M629.4,911.4h15.3V896.1H629.4v15.3Z" class="g6_34"/>
<path d="M629.4,911.4h15.3V896.1H629.4v15.3ZM55,862.5H880V835H55v27.5Z" class="g1_34"/>
<path d="M55,1018.3H880V990.8H55v27.5Z" class="g5_34"/>
<path d="M531.7,1073.3H880v-27.5H531.7v27.5ZM55,706.6H568.3V679.1H55v27.5Zm522.5,0H880V679.1H577.5v27.5ZM55,358.3H284.2V330.8H55v27.5Zm238.3,0H522.5V330.8H293.3v27.5Zm0,715H522.5v-27.5H293.3v27.5Zm-238.3,0H284.2v-27.5H55v27.5Z" class="g1_34"/>
</svg>