<?xml version="1.0" encoding="UTF-8" standalone="no"?>
<!DOCTYPE svg PUBLIC "-//W3C//DTD SVG 1.1//EN"
"http://www.w3.org/Graphics/SVG/1.1/DTD/svg11.dtd">
<svg viewBox="0 0 935 1210" version="1.1" xmlns="http://www.w3.org/2000/svg" xmlns:xlink="http://www.w3.org/1999/xlink">
<defs>
<style type="text/css"><![CDATA[
.g0_6{
fill: none;
stroke: #000000;
stroke-width: 1.099;
stroke-linecap: square;
stroke-linejoin: miter;
}
.g1_6{
fill: none;
stroke: #000000;
stroke-width: 9.13;
stroke-linecap: square;
stroke-linejoin: miter;
}
.g2_6{
fill: none;
stroke: #000000;
stroke-width: 1.099;
stroke-linecap: butt;
stroke-linejoin: miter;
}
.g3_6{
fill: #E0E0E0;
}
.g4_6{
fill: none;
stroke: #000000;
stroke-width: 0.763;
stroke-linecap: butt;
stroke-linejoin: miter;
}
.g5_6{
fill: #FFFFFF;
}
]]></style>
</defs>
<path d="M55,1155H880" class="g0_6"/>
<path d="M876.2,55H60" class="g1_6"/>
<path d="M880,64.2H55" class="g2_6"/>
<path d="M55.8,467.5h825V421.7H55.8v45.8Z" class="g3_6"/>
<path d="M55.8,467.5h825V421.7H55.8v45.8ZM679.1,870.8H880.8V843.3H679.1v27.5ZM91.7,742.5h385V715H91.7v27.5Zm.7,54.5h385V769.5H92.4V797ZM495.8,742.5h385V715h-385v27.5Z" class="g4_6"/>
<image preserveAspectRatio="none" x="56" y="843" width="26" height="28" xlink:href="img/1.jpg"/>
<path d="M92.4,870.8H660.8V843.3H92.4v27.5Zm219.3,73.4H880V916.7H311.7v27.5Zm-220,0H293.3V916.7H91.7v27.5Z" class="g4_6"/>
<path d="M55,128.3H880V82.5H55v45.8Z" class="g3_6"/>
<path d="M55,128.3H880V82.5H55v45.8Z" class="g4_6"/>
<path d="M93.8,294.1h15.3V278.8H93.8v15.3Z" class="g5_6"/>
<path d="M93.8,294.1h15.3V278.8H93.8v15.3Z" class="g4_6"/>
<path d="M93.8,339.9h15.3V324.7H93.8v15.2Z" class="g5_6"/>
<path d="M93.8,339.9h15.3V324.7H93.8v15.2Z" class="g4_6"/>
</svg>