<?xml version="1.0" encoding="UTF-8" standalone="no"?>
<!DOCTYPE svg PUBLIC "-//W3C//DTD SVG 1.1//EN"
"http://www.w3.org/Graphics/SVG/1.1/DTD/svg11.dtd">
<svg viewBox="0 0 935 1210" version="1.1" xmlns="http://www.w3.org/2000/svg" xmlns:xlink="http://www.w3.org/1999/xlink">
<defs>
<style type="text/css"><![CDATA[
.g0_8{
fill: none;
stroke: #000000;
stroke-width: 1.099;
stroke-linecap: square;
stroke-linejoin: miter;
}
.g1_8{
fill: none;
stroke: #000000;
stroke-width: 9.13;
stroke-linecap: square;
stroke-linejoin: miter;
}
.g2_8{
fill: none;
stroke: #000000;
stroke-width: 1.099;
stroke-linecap: butt;
stroke-linejoin: miter;
}
.g3_8{
fill: #E2E2E2;
}
.g4_8{
fill: none;
stroke: #C0C0C0;
stroke-width: 0.763;
stroke-linecap: square;
stroke-linejoin: miter;
}
.g5_8{
fill: none;
stroke: #000000;
stroke-width: 0.763;
stroke-linecap: butt;
stroke-linejoin: miter;
}
.g6_8{
fill: none;
stroke: #000000;
stroke-width: 0.763;
stroke-linecap: square;
stroke-linejoin: miter;
}
]]></style>
</defs>
<path d="M55,1155H880" class="g0_8"/>
<path d="M876.2,55H60" class="g1_8"/>
<path d="M880,64.2H55" class="g2_8"/>
<path d="M55,110H880V82.5H55V110Z" class="g3_8"/>
<path d="M55,110H880V82.5H55V110Z" class="g2_8"/>
<path d="M284.4,201.7v27.5M262.3,201.7v27.5m-22,-27.5v27.5M394.6,201.7v27.5M372.5,201.7v27.5m-22,-27.5v27.5m-22,-27.5v27.5M306.4,201.7v27.5" class="g4_8"/>
<path d="M220.2,229.2h197V201.7h-197v27.5Zm-128.4,55h91.7V256.7H91.8v27.5Zm265.9,0h91.6V256.7H357.7v27.5Zm265.8,0h91.7V256.7H623.5v27.5Z" class="g5_8"/>
<path d="M91.7,1017.5H880.3M91.7,990H880.3M91.7,1045H880.3M91.7,962.5H880.3M91.7,935H880.3M91.7,907.5H880.3M91.7,880H880.3m0,-27.5H91.7" class="g6_8"/>
<path d="M623.5,815.8h91.7V788.3H623.5v27.5Zm-265.8,0h91.6V788.3H357.7v27.5Zm-265.9,0h91.7V788.3H91.8v27.5ZM92.4,550H184V522.5H92.4V550Zm265.3,0h91.6V522.5H357.7V550Zm265.8,0h91.7V522.5H623.5V550Z" class="g5_8"/>
<path d="M91.8,751.7H880.5M91.8,724.2H880.5M91.8,696.7H880.5M91.8,669.2H880.5M91.8,641.7H880.5M91.8,614.2H880.5m0,-27.5H91.8m0,-100.9H880.5M91.8,458.3H880.5M91.8,430.8H880.5M91.8,403.3H880.5M91.8,375.8H880.5M91.8,348.3H880.5m0,-27.5H91.8" class="g6_8"/>
</svg>